<svg width="32" height="32" viewBox="0 0 32 32" fill="none" xmlns="http://www.w3.org/2000/svg">
<rect width="32" height="32" rx="4.8" fill="url(#paint0_linear_2788_8976)"/>
<rect width="32" height="32" rx="4.8" fill="white"/>
<path d="M21.6667 19L20.5117 21.5208L18 22.6667L20.5117 23.8217L21.6667 26.3333L22.8125 23.8217L25.3333 22.6667L22.8125 21.5208L21.6667 19Z" fill="black" fill-opacity="0.2"/>
<path d="M24.3333 16L23.9133 16.9167L23 17.3333L23.9133 17.7533L24.3333 18.6667L24.75 17.7533L25.6667 17.3333L24.75 16.9167L24.3333 16Z" fill="#CCCCCC"/>
<path d="M22.8333 14L22.5708 14.5729L22 14.8333L22.5708 15.0958L22.8333 15.6667L23.0938 15.0958L23.6667 14.8333L23.0938 14.5729L22.8333 14Z" fill="#CCCCCC"/>
<path d="M16.0007 25.1663C16.3283 25.1663 16.6559 25.148 16.9754 25.1114C17.5214 25.0489 17.7362 24.4397 17.481 23.953C17.2884 23.5855 16.8693 23.314 16.4546 23.3278C16.2967 23.333 16.1419 23.333 16.0007 23.333C11.9673 23.333 8.66732 20.033 8.66732 15.9997C8.66732 11.9663 11.9673 8.66634 16.0007 8.66634C16.5301 8.66634 17.0118 8.71413 17.4802 8.8097C17.8147 8.87795 18.167 8.79162 18.4084 8.55022C18.9026 8.05607 18.7022 7.21576 18.0194 7.06666C17.3578 6.92218 16.6792 6.83301 16.0007 6.83301C10.959 6.83301 6.83398 10.958 6.83398 15.9997C6.83398 21.0413 10.959 25.1663 16.0007 25.1663ZM11.6007 16.183C11.2463 15.8286 11.2463 15.2541 11.6007 14.8997C11.955 14.5453 12.5296 14.5453 12.884 14.8997L15.084 17.0997L22.3257 9.85801C22.68 9.50363 23.2546 9.50363 23.609 9.85801C23.9634 10.2124 23.9634 10.787 23.609 11.1413L15.8479 18.9025C15.426 19.3243 14.742 19.3243 14.3201 18.9025L11.6007 16.183ZM22.4173 17.833L21.2623 20.3538L18.7507 21.4997L21.2623 22.6547L22.4173 25.1663L23.5632 22.6547L26.084 21.4997L23.5632 20.3538L22.4173 17.833Z" fill="black"/>
<path d="M16.0007 25.1663C16.3283 25.1663 16.6559 25.148 16.9754 25.1114C17.5214 25.0489 17.7362 24.4397 17.481 23.953C17.2884 23.5855 16.8693 23.314 16.4546 23.3278C16.2967 23.333 16.1419 23.333 16.0007 23.333C11.9673 23.333 8.66732 20.033 8.66732 15.9997C8.66732 11.9663 11.9673 8.66634 16.0007 8.66634C16.5301 8.66634 17.0118 8.71413 17.4802 8.8097C17.8147 8.87795 18.167 8.79162 18.4084 8.55022C18.9026 8.05607 18.7022 7.21576 18.0194 7.06666C17.3578 6.92218 16.6792 6.83301 16.0007 6.83301C10.959 6.83301 6.83398 10.958 6.83398 15.9997C6.83398 21.0413 10.959 25.1663 16.0007 25.1663ZM11.6007 16.183C11.2463 15.8286 11.2463 15.2541 11.6007 14.8997C11.955 14.5453 12.5296 14.5453 12.884 14.8997L15.084 17.0997L22.3257 9.85801C22.68 9.50363 23.2546 9.50363 23.609 9.85801C23.9634 10.2124 23.9634 10.787 23.609 11.1413L15.8479 18.9025C15.426 19.3243 14.742 19.3243 14.3201 18.9025L11.6007 16.183ZM22.4173 17.833L21.2623 20.3538L18.7507 21.4997L21.2623 22.6547L22.4173 25.1663L23.5632 22.6547L26.084 21.4997L23.5632 20.3538L22.4173 17.833Z" fill="url(#paint1_linear_2788_8976)"/>
<path d="M16.0007 25.1663C16.3283 25.1663 16.6559 25.148 16.9754 25.1114C17.5214 25.0489 17.7362 24.4397 17.481 23.953C17.2884 23.5855 16.8693 23.314 16.4546 23.3278C16.2967 23.333 16.1419 23.333 16.0007 23.333C11.9673 23.333 8.66732 20.033 8.66732 15.9997C8.66732 11.9663 11.9673 8.66634 16.0007 8.66634C16.5301 8.66634 17.0118 8.71413 17.4802 8.8097C17.8147 8.87795 18.167 8.79162 18.4084 8.55022C18.9026 8.05607 18.7022 7.21576 18.0194 7.06666C17.3578 6.92218 16.6792 6.83301 16.0007 6.83301C10.959 6.83301 6.83398 10.958 6.83398 15.9997C6.83398 21.0413 10.959 25.1663 16.0007 25.1663ZM11.6007 16.183C11.2463 15.8286 11.2463 15.2541 11.6007 14.8997C11.955 14.5453 12.5296 14.5453 12.884 14.8997L15.084 17.0997L22.3257 9.85801C22.68 9.50363 23.2546 9.50363 23.609 9.85801C23.9634 10.2124 23.9634 10.787 23.609 11.1413L15.8479 18.9025C15.426 19.3243 14.742 19.3243 14.3201 18.9025L11.6007 16.183ZM22.4173 17.833L21.2623 20.3538L18.7507 21.4997L21.2623 22.6547L22.4173 25.1663L23.5632 22.6547L26.084 21.4997L23.5632 20.3538L22.4173 17.833Z" fill="url(#paint2_linear_2788_8976)"/>
<defs>
<linearGradient id="paint0_linear_2788_8976" x1="16" y1="0" x2="16" y2="32" gradientUnits="userSpaceOnUse">
<stop stop-color="#A6D4F5"/>
<stop offset="1" stop-color="#D4BAF7"/>
</linearGradient>
<linearGradient id="paint1_linear_2788_8976" x1="16.7016" y1="10.3251" x2="16.7016" y2="21.0195" gradientUnits="userSpaceOnUse">
<stop stop-color="#8FBFEB"/>
<stop offset="1" stop-color="#207CD1"/>
</linearGradient>
<linearGradient id="paint2_linear_2788_8976" x1="25.9012" y1="25.3491" x2="7.20156" y2="7.19892" gradientUnits="userSpaceOnUse">
<stop stop-color="#FF3485"/>
<stop offset="1" stop-color="#3F6FFF"/>
</linearGradient>
</defs>
</svg>
